<?xml version="1.0" encoding="UTF-8"?>
<svg width="76px" height="86px" viewBox="0 0 76 86" version="1.1" xmlns="http://www.w3.org/2000/svg" xmlns:xlink="http://www.w3.org/1999/xlink">
    <!-- Generator: Sketch 56.3 (81716) - https://sketch.com -->
    <title>logo</title>
    <desc>Created with Sketch.</desc>
    <g id="Page-1" stroke="none" stroke-width="1" fill="none" fill-rule="evenodd">
        <g id="logo" fill="#000000" fill-rule="nonzero">
            <path d="M7.2,5 C10.3,5.5 13.9,6.5 17.8,7.8 C18.5,8.1 18.7,8.5 18.6,8.9 C18.4,9.2 18,9.3 17.4,9 C14.7,8 11.9,7.4 9.1,7.3 C8.2,7.7 7.4,7.7 6.7,7.6 C5.5,7.4 5,6.8 5.2,6.1 C5.4,5.2 6,4.8 7.2,5 Z M22.1,14.4 C23.1,14.8 23.8,15 24.1,14.9 C24.5,14.8 24.9,14.1 25.3,13 C26.1,10.3 27.3,7.9 28.8,5.9 C29.8,4.6 30.6,3.7 31,3.2 C32,2.3 33.1,1.9 34.3,1.8 L34.3,1.8 L34.3,1.8 C32.2,5 31,6.7 30.8,7 C29.5,9 28.5,10.8 27.8,12.4 C27.4,13.5 27,14.3 26.8,14.9 C26.5,15.8 26.8,16.5 27.7,17.1 C30.5,18.7 32,19.6 32.2,19.7 C33.9,20.7 35.2,21.8 36.3,22.7 C37.2,23.5 38.1,23.5 39.1,22.7 C41.2,21.2 43.7,20 46.8,19 C48.1,18.5 48.9,18 49.1,17.5 C49.3,17.1 49.2,16.1 48.8,14.7 C47.8,11.3 46.3,8.4 44.3,5.8 C41.8,2.5 38.5,1.2 34.4,2 L34.4,2 L34.4,2 C34.1,1.4 34,1 34.1,0.8 C34.2,0.4 34.6,0.2 35.4,0.2 C37.6,1.22124533e-15 39.8,0.5 42.1,1.7 C44.3,2.8 45.9,4.4 46.9,6.3 C48.3,8.8 49.5,11.6 50.5,14.7 C50.9,15.8 51.2,16.4 51.5,16.5 C51.8,16.7 52.6,16.6 53.7,16.3 C54.5,16.1 55.1,15.9 55.5,15.7 C58,14.5 61.1,13.6 64.9,13 C67.4,12.6 69.6,12.9 71.5,13.9 C72.4,14.3 73,14.7 73.3,14.9 C73.8,15.4 74.1,16 74.1,16.7 C74.1,17 74.3,17.1 74.7,17.3 C75.7,17.5 76.1,18.3 75.9,19.7 C75.6,21.5 75.4,22.8 75.2,23.7 C74.9,25.3 74.5,26.6 74.1,27.7 C72.5,31.6 70.3,34.7 67.5,37.2 C66.8,37.8 65.7,39 64.2,40.7 C62.9,42.2 61.7,43.4 60.8,44.1 C61.4,44.8 62.1,45.8 62.9,47 C63.8,48.4 64.4,49.4 64.7,49.8 C65.7,51.1 66.7,52.8 67.8,54.9 C69,57.3 69.8,59 70.5,60.2 C72.3,63.4 73.2,66.8 73.3,70.6 C73.4,73.2 72.6,75.1 71,76.2 C69.4,77.3 67.2,77.4 64.6,76.6 C62.4,75.9 59.2,74.4 55,72 C54.1,71.5 52.8,70.6 51,69.5 C49.4,68.4 48,67.6 46.7,67.1 C46.4,68.6 45.8,70.3 45,72.1 C44,74.2 43.3,75.8 42.8,76.8 C42.2,78.2 41,79.5 39.5,80.5 C38.4,81.3 37.1,81.5 35.7,81.2 C34.3,80.9 33.2,80.1 32.5,78.9 C30.1,74.9 28.6,71.6 28,69 C27.9,68.6 27.4,67.5 26.5,65.8 C26.1,64.9 25.5,64.6 24.7,65 C22.9,65.7 20.9,66.4 18.5,67 C17.4,67.3 15.3,67.8 12.2,68.5 C9.1,69.2 6.3,68.9 3.8,67.6 C0.9,66.1 -0.2,63.9 0.7,60.7 C1.9,56.5 4.4,52.2 8.3,48 L13.9,41.8 C14.3,41.4 14.5,40.9 14.5,40.6 C14.5,40.3 14.2,39.9 13.8,39.4 C9.7,34.6 6.2,29.8 3.5,24.8 C2.6,23.3 1.9,21.4 1.4,19.3 C0.8,17.1 1.5,14.7 3.5,12 C4.3,11 5.2,10.3 6.2,10 C7,9.7 8.1,9.7 9.4,10 C10.5,10.2 11.8,10.6 13.2,11.1 C16.8,12.2 19.9,13.5 22.1,14.4 Z M10.7,13.3 L14.1,14.2 C15.4,14.6 16.5,15.1 17.3,15.7 C17.8,16.1 18.9,16.8 20.6,17.7 C21,17.8 21.4,17.8 21.5,17.9 C21.9,18 22,18.2 21.9,18.5 C21.7,19.1 21,19.2 19.8,18.7 L18.2,17.8 C16.7,16.7 15.1,16 13.2,15.6 C12.8,15.5 12.1,15.3 11.1,14.9 C10.3,14.7 9.6,14.9 9.2,15.4 C8.6,16 8.4,16.7 8.5,17.6 C8.6,18.1 8.8,18.9 9.3,19.9 C10.9,23.3 12.4,25.7 13.7,27.3 C14.4,28.1 15.3,29.2 16.3,30.6 C17.6,32.4 18.4,33.6 18.7,34 C19,34.4 19.1,34.8 18.9,35.1 C18.8,35.2 18.6,35.4 18.1,35.9 C18.8,35.8 19.5,35.5 20.2,35 C21,34.4 21.5,33.9 22,33.6 C22.5,33.3 22.7,32.7 22.7,31.8 C22.5,28 22.9,24.1 23.9,19.9 C24.2,18.8 24.2,18.1 24.1,17.7 C23.9,17.4 23.3,16.9 22.3,16.4 C17.5,14.1 12.9,12.5 8.6,11.7 C7.3,11.4 6.4,11.5 5.9,11.7 C5.5,12 4.9,12.7 4.2,13.8 C3,16 3,18.8 4.4,22 C6,25.4 8,28.9 10.7,32.4 C12.4,34.8 13.7,36.5 14.5,37.7 C15.3,38.9 16.1,38.9 16.8,37.8 C16.8,37.7 17.1,37.4 17.6,36.9 C18,36.6 18.2,36.2 18.1,35.8 L14.5,31.2 C13.1,29.4 11.9,27.8 11.1,26.6 C10,24.6 9,23 8.4,21.8 C7.5,20 7,18.3 6.9,16.6 C6.7,15.3 7,14.3 7.7,13.7 C8.4,13 9.4,12.9 10.7,13.3 Z M31.7,16.5 C31.5,17.3 31.1,17.7 30.5,17.5 C30.2,17.4 30,17.3 30,17.1 C30,16.9 29.9,16.7 29.9,16.4 C30.3,12.5 31.4,9.2 33,6.3 C34.5,3.7 36.7,3.2 39.4,5 C41.3,6.1 42.9,7.7 44.3,9.6 C45.3,11 46.4,12.9 47.7,15.3 C47.9,15.8 47.9,16.2 47.5,16.3 C46.9,16.6 46.5,16.6 46.2,16 L45.3,14.1 C43.8,11.2 42.2,9.1 40.5,7.7 C38.6,6.3 37.2,5.7 36.3,6 C35.3,6.3 34.4,7.5 33.6,9.6 C33.1,11 32.5,13.2 31.7,16.5 Z M21.5,11.1 C21.8,9.9 22.6,8.9 23.7,8.2 C24.1,7.9 24.4,8.1 24.6,8.6 C24.7,8.9 24.4,9.5 23.7,10.4 C23.1,11.3 22.6,11.7 22.4,11.8 C22.1,11.9 21.8,11.8 21.6,11.7 C21.4,11.6 21.4,11.4 21.5,11.1 Z M29.5,30.2 C29.3,30.4 29,30.7 28.5,31.1 C28.1,31.4 27.7,31.6 27.3,31.8 C26.2,32.2 25.4,32.9 25,33.8 C24.6,34.5 24.5,35.5 24.5,36.7 L24.5,40.8 C23.5,45 25.1,48.4 29.5,51.1 C30.4,51.6 31.4,52.4 32.5,53.3 C33.8,54.4 34.8,55.2 35.4,55.8 C36.1,56.4 36.8,56.7 37.3,56.8 C37.9,56.9 38.7,56.7 39.5,56.2 C42.6,54.6 44.9,53.3 46.5,52.5 C48.3,51.6 49.3,50.2 49.5,48.4 C49.6,47.8 49.9,46.2 50.5,43.7 C50.9,41.7 51.2,40.1 51.2,38.9 C51.2,37.6 50.8,36.7 50,36.1 L38.5,26.3 C37.7,25.7 36.9,25.6 36,26.1 C33.9,27.1 31.7,28.5 29.5,30.2 Z M35.5,24.3 C33.5,22.3 30.6,20.3 26.6,18.4 C25.8,20 25.3,22 25,24.5 C24.5,28.6 24.3,30.8 24.2,31.1 C25.9,30.3 27.8,29.2 30,27.8 C32.9,25.9 34.7,24.8 35.5,24.3 Z M36.1,34.5 C36.2,34.4 36.4,34.4 36.6,34.5 C36.9,34.8 37.4,34.9 37.9,34.9 C38.8,34.8 39.2,34.8 39.2,34.8 C40.7,35 42.3,36.1 44.2,38.1 C46.1,40.2 47,41.9 46.9,43.2 C46.6,45.5 45.8,47.4 44.4,48.9 C42.8,50.6 40.7,51.4 38.2,51.4 C36.5,51.5 34.7,50.8 32.8,49.4 C31.1,48.1 30.1,46.7 29.7,45.2 C29.1,43.1 29.2,41.3 29.9,39.7 C30.6,38 31.9,36.9 34,36.4 C35.1,36.1 35.7,35.6 35.8,34.9 C35.9,34.8 35.9,34.6 36.1,34.5 Z M33.6,39 C32.8,39.6 32.3,40.3 32.1,41 C31.9,41.6 31.9,42 31.9,42.2 C31.9,42.6 32.1,43.1 32.4,43.4 C34.4,45.6 36.8,47.5 39.4,48.9 C38.9,47.9 37.9,46.6 36.6,44.9 C35.2,43.1 34.3,41.8 33.8,40.9 C34.2,40.8 34.6,40.9 34.9,41.1 L40.8,47.3 C41.4,48 41.9,48.1 42.3,47.7 C42.6,47.4 42.6,47.1 42.5,46.8 C42.4,46.7 42.3,46.5 42,46.1 L39.3,43.3 C38.4,42.2 37.8,41 37.5,39.9 C38.2,40.5 39.3,41.5 40.7,43 C41.9,44.3 42.9,45.2 43.8,45.7 C44.6,44.8 44.5,44 43.7,43.2 C41.6,41.1 39.9,39.3 38.7,37.7 C37.9,36.6 36.9,36.5 35.8,37.4 C35.2,37.9 34.5,38.4 33.6,39 Z M17.9,39.2 C17.1,39.9 17.1,40.5 18,41.2 L22.4,45.1 C22.9,43.9 23.1,42.3 22.8,40.4 C22.5,38.2 22.4,36.6 22.6,35.8 C21.7,36.1 20.9,36.7 20,37.4 C19.5,37.7 18.8,38.3 17.9,39.2 Z M0.1,27.2 C-1.4190038e-15,26.8 -1.4190038e-15,26.4 0.1,26 C0.1,25.6 0.3,25.3 0.8,25.3 C1.4,25.3 1.6,25.6 1.6,26.3 C1.6,26.7 1.7,27.1 1.9,27.6 C2.2,28.1 2.4,28.5 2.6,28.7 C4.5,32.1 7.3,35.5 10.9,38.8 C11.3,39.1 11.6,39.4 11.7,39.5 C11.9,39.8 11.8,40.1 11.5,40.4 C11,40.9 10.4,40.8 9.7,40.1 C7,37.1 5.3,35.1 4.7,34.3 C2.8,32.1 1.5,30 0.6,28 C0.5,27.9 0.3,27.6 0.1,27.2 Z M6.5,43.3 L7.3,42.9 C8.3,42.2 9,42.2 9.4,42.9 C9.7,43.3 9.6,43.7 9.3,44 C9.1,44.2 8.7,44.4 8.1,44.7 C7.9,44.9 7.6,45 7.3,45 C6.6,45 6.1,44.8 5.9,44.5 C5.7,44.1 5.9,43.7 6.5,43.3 Z M11.6,46.7 C8.9,49.3 6.6,52.6 4.5,56.6 C3.8,57.9 3.2,59.3 2.8,61 C2.6,61.7 2.7,62.4 3.1,63.2 C3.5,64 4.1,64.5 4.8,64.9 C6.2,65.7 8.1,66.1 10.5,66.1 C13.7,66 18.2,64.9 24,63 C25,62.7 25.3,62.1 25,61.2 C24.6,59.5 24.2,57.5 23.8,55 C23.6,53.6 23.4,51.5 23,48.7 C22.9,48 22.3,47.2 21.3,46.3 L18.9,44.1 C17.9,43.2 17,42.6 16.3,42.1 C15.5,42.6 14.7,43.3 13.9,44.3 C12.4,45.8 11.7,46.6 11.6,46.7 Z M17.3,46.6 C17.7,46.9 17.6,47.4 17.2,47.9 C16.4,48.9 15.1,50.3 13.4,52.2 C11.7,54.2 10.3,56.4 9.4,58.8 C8.5,61 9.2,62.4 11.7,62.7 C13.2,62.9 14.6,62.8 15.7,62.4 C17.7,61.9 19.2,61.3 20.2,60.6 C20.8,60.2 21.4,60 22,60 C22.7,60 23.5,60.4 24.3,61.1 C23.3,61.1 22.3,61.3 21.4,61.7 C21.3,61.7 20.6,62.1 19.2,62.9 C16.8,64.2 14.2,64.7 11.2,64.4 C9.8,64.3 8.9,64 8.4,63.6 C7.9,63.2 7.6,62.4 7.4,61.1 C7.2,60 7.4,58.8 7.8,57.6 C8.5,55.9 9.7,54 11.4,51.9 C13.4,49.6 14.8,47.9 15.7,46.7 C16.2,46 16.7,45.9 17.3,46.6 Z M25.2,53.4 C25.5,54.8 25.8,55.8 25.9,56.4 C26.3,59.3 26.9,60.9 27.4,61.2 C27.9,61.5 29.6,61.1 32.4,60 C33.7,59.5 34.7,58.9 35.4,58.2 L25,49.9 C24.9,50.9 24.9,52.1 25.2,53.4 Z M32.5,64.9 C32.7,65.2 32.9,65.7 32.9,66.6 C33.1,68.9 33.5,70.6 34.2,71.7 C35.1,73.3 36.2,74 37.6,73.8 C38.6,73.7 39.4,72.8 40,71.1 L41.5,66.6 C41.5,66.5 41.6,66.2 41.7,65.9 C41.8,65.6 42,65.5 42.4,65.6 C43.1,65.7 43.3,66.1 42.9,67 C42.7,67.5 42.4,68.7 41.9,70.5 C41.5,72 41.1,73.1 40.6,74 C40,74.9 39.2,75.5 38.1,75.8 C37,76.1 36,75.8 35.1,75.2 C33.5,74 32.5,72.6 32.1,70.9 L30.8,63.8 C31.8,64.3 32.3,64.7 32.5,64.9 Z M28.7,66 C30.3,70.3 31.8,73.8 33.1,76.4 C33.9,77.8 35.1,78.7 36.6,79 C37.9,78.7 38.9,78.1 39.6,77.1 C40.3,76.3 40.9,75.3 41.4,74.1 C41.5,74 42,72.9 42.9,70.9 C43.1,70.5 43.3,69.8 43.5,69 C44.1,67.1 44.3,65.9 44.2,65.4 C44.1,64.9 43.2,64 41.5,62.7 L41.2,62.5 C39.8,61.2 38.5,60.4 37.2,60.2 C35.7,59.9 34.2,60.5 32.7,61.7 C32.4,61.9 32.1,62.1 31.7,62.3 C31.4,62.4 31,62.5 30.5,62.6 C29.1,63 28.4,63.4 28.2,63.6 C28.1,63.9 28.2,64.7 28.7,66 Z M36.5,83.6 C37.6,83.7 38.4,83.8 38.7,83.9 C37.7,84.9 36.9,85.4 36.2,85.2 C35.5,85 35,84.3 34.4,83 C34.9,83.4 35.6,83.6 36.5,83.6 Z M53,18 C52,18.2 51.6,18.9 51.8,20.2 C52.3,23.1 52.8,26.7 53.2,31 C53.3,32.8 53.4,34.3 53.4,35.7 C53.4,36.8 53.7,37.6 54.2,38.1 C56.9,40.8 58.7,42.4 59.6,43.1 C62.7,40.1 64.8,37.8 66.1,36.4 C68.4,33.9 70.2,31.4 71.5,29.1 C72.1,28.1 72.6,26.7 73,25 C73.5,22.5 73.9,21 74,20.6 C74.4,19.5 73.9,18.3 72.4,17 C69.4,14.4 65.6,13.8 61.2,15.2 C60.6,15.4 59.3,15.8 57.2,16.7 C55.4,17.3 54,17.7 53,18 Z M68.4,18.5 C69.5,19.3 70.1,20.1 70,20.9 C70,22 69.9,22.8 69.9,23.3 C69.8,24.3 69.6,25.1 69.1,25.8 C68.4,27 67.4,28.8 66.2,31.3 C64.8,33.8 62.8,36 60.2,38 C59.6,38.5 59.1,38.8 58.7,39 C58.3,39.2 57.9,39.1 57.6,38.7 C57.3,38.3 57.4,37.9 57.6,37.7 L58.9,36.5 C62.4,34 65,30.6 66.9,26.3 C67.5,24.9 67.9,23.8 67.9,22.9 C68,21.5 67.5,20.5 66.5,19.8 C65.5,19 64.3,18.9 63.1,19.5 C62.9,19.6 61.9,19.9 60,20.3 C58.8,20.6 57.9,21.2 57.3,21.9 C57.2,21.9 57,22 56.7,22 C56.4,22 56.2,21.8 56,21.6 C55.8,21.4 55.8,21.1 55.8,20.8 C55.8,20.6 56,20.4 56.3,20.3 C58.2,19.4 59.7,18.8 60.6,18.5 C62.3,17.9 63.8,17.5 65.2,17.4 C66.2,17.3 67.3,17.7 68.4,18.5 Z M71.8,39.4 C70.9,40.3 69.6,41.9 68,44 C67.4,44.8 66.7,45.3 65.9,45.6 C65.2,45.9 64.7,45.8 64.3,45.3 C64,44.8 64.1,44.4 64.7,44.1 C65.8,43.4 67,42.4 68.4,40.9 C70.2,38.9 71.4,37.7 71.9,37.2 C72.4,38.1 72.4,38.8 71.8,39.4 Z M40.9,23.1 C39.8,23.8 39.3,24.3 39.2,24.7 C39.1,25 39.6,25.6 40.5,26.4 L51.1,35 C51.3,32.5 51.2,29.8 50.9,27 C50.7,25.3 50.3,22.7 49.7,19.3 C48.8,19.7 47.3,20.4 45.1,21.3 C43.3,21.8 41.9,22.5 40.9,23.1 Z M53.1,40 C53.1,41.1 52.9,42.4 52.6,44.1 L51.7,48.3 C52.8,47.9 53.9,47.3 55,46.5 C56.3,45.5 57.2,44.7 57.9,44.2 L53.7,40 L53.1,40 Z M40.1,37.2 C40.2,37.8 40.5,38.3 40.9,38.7 C41.1,39 41.7,39.3 42.4,39.9 C42.1,38.7 41.3,37.8 40.1,37.2 Z M54.5,62.3 C55.4,63.2 56.7,64.2 58.3,65.3 C60.9,67.1 62.2,68.1 62.3,68.1 C63.7,69.2 65,69.4 66,68.8 C66.5,68.5 66.8,67.9 66.8,67.3 C66.8,67 66.7,66.4 66.5,65.5 C65.6,61.5 64.1,58.2 61.9,55.7 C60.6,54.1 59.7,52.6 59.3,51.3 L59.9,51 C60.5,51.9 61,52.6 61.3,53.1 C61.9,53.9 62.4,54.6 62.9,55 C64.4,56.5 65.7,58.4 66.7,60.8 C67.2,61.8 67.9,64 68.8,67.2 C69.2,68.3 69,69.3 68.3,70 C67.6,70.7 66.5,71 65.2,70.9 C63.7,70.7 62.2,70.2 60.7,69.1 C57.9,67.1 55.4,65.3 53.4,63.7 C52.6,63.1 52.1,62.8 52.1,62.7 C51.7,62.2 51.7,61.7 52.2,61.2 C52.6,60.8 53,60.8 53.6,61.2 C53.4,61.3 53.8,61.6 54.5,62.3 Z M39.5,58.5 C40.3,59.3 42.3,60.9 45.5,63.3 L48.2,54.2 C47.2,54.6 45.7,55.2 43.7,56 C41.9,56.8 40.5,57.6 39.5,58.5 Z M48.6,65.6 C51.3,67.3 53.3,68.5 54.7,69.3 C57.1,70.8 59.2,72 60.9,72.8 C61.9,73.3 63.1,73.7 64.7,74.1 C69,75.2 71,73.4 70.9,68.5 C70.8,65.7 69.9,62.7 68.2,59.5 C65.8,54.9 63.7,51.2 61.8,48.5 C60.5,46.5 59.5,45.5 59,45.5 C58.8,45.5 57.8,46.1 55.8,47.3 C52.4,49.4 50.4,52.1 49.8,55.6 C49.6,56.7 48.9,59.2 47.6,63.2 C47.4,64.3 47.7,65 48.6,65.6 Z M67.5,48.9 C67.2,48.5 67.3,48.2 67.8,47.9 C68.2,47.7 68.6,47.8 68.9,48.2 C69.2,48.8 69.5,49.2 69.6,49.4 C70.3,50.3 70.8,51.2 70.9,52 C71,52.6 70.7,53 70.1,53 C69.4,53 69.1,52.7 69,52.1 C68.9,51.5 68.7,50.8 68.2,49.9 C68.2,49.8 67.9,49.4 67.5,48.9 Z M47.9,71.2 C48,70.9 48.2,70.8 48.5,70.8 C49.3,70.8 49.6,71.2 49.5,72 C49.3,74.1 49,75.9 48.5,77.3 C47.8,79.1 46.8,80.6 45.4,81.8 C45,82.2 44.5,82.4 44.1,82.4 C43.5,82.4 43.1,82.1 42.9,81.5 C42.8,81.2 43.1,80.8 43.7,80.4 C45.9,78.8 47.1,76.7 47.3,74 C47.4,73.5 47.5,72.8 47.8,72 C47.8,71.7 47.9,71.5 47.9,71.2 Z" id="Shape"></path>
        </g>
    </g>
</svg>